<svg width="108" height="87" viewBox="0 0 108 87" xmlns="http://www.w3.org/2000/svg"><title>logo</title><g fill="none" fill-rule="evenodd"><path d="M6.196 79.95L0 73.179v12.904h2.06v-7.906l4.136 4.644 4.137-4.644v7.906h2.06V73.179zm10.084-6.452v2.02h3.25v10.565h2.059V75.518h3.267v-2.02zm10.528 11.184c0-.833.693-1.524 1.545-1.524s1.527.691 1.527 1.524a1.53 1.53 0 0 1-1.527 1.542c-.852 0-1.545-.69-1.545-1.542m7.599-11.503l6.196 6.77 6.196-6.77v12.904H44.74v-7.905l-4.137 4.643-4.136-4.643v7.905h-2.06zm22.263 4.342l-1.793 3.882h3.586l-1.793-3.882zm-3.959 8.562H50.51l6.16-12.887 6.16 12.887h-2.218l-1.296-2.8h-5.31l-1.295 2.8zM68.6 77.894v8.189h-2.059V73.196l8.61 8.42v-8.118h2.06v12.815zm23.613 1.896c0-2.517-1.864-4.484-4.35-4.484-2.485 0-4.35 1.967-4.35 4.484s1.865 4.485 4.35 4.485c2.486 0 4.35-1.968 4.35-4.485m-10.795 0c0-3.633 2.877-6.434 6.445-6.434 3.587 0 6.445 2.8 6.445 6.434 0 3.634-2.858 6.434-6.445 6.434-3.568 0-6.445-2.8-6.445-6.434m20.95-.85c1.367 0 2.148-.692 2.148-1.755 0-1.082-.78-1.79-2.148-1.79h-1.793v3.544h1.793zm-1.793 7.143h-2.06V73.498h4.084c2.343 0 4.012 1.506 4.012 3.616 0 1.63-.994 2.925-2.592 3.42l4.013 5.549h-2.468l-3.8-5.354h-1.189v5.354z" fill="#FEFEFE"/><g stroke-width="2" stroke="#FEAB83"><path d="M39.839 46.661v-29l13.537 13.515 13.538-13.515v29"/><path d="M39.839 46.661V31.228l13.537 13.515 13.538-13.515v15.433M39.839 31h27.075M53 31.176v13.567"/><path d="M53.376 60.809l-29.68-29.633 29.68-29.632 29.681 29.632z"/></g></g></svg>