<?xml version="1.0" encoding="UTF-8" standalone="no"?>
<svg width="26px" height="26px" viewBox="0 0 26 26" version="1.1" xmlns="http://www.w3.org/2000/svg" xmlns:xlink="http://www.w3.org/1999/xlink">
    <!-- Generator: Sketch 39.1 (31720) - http://www.bohemiancoding.com/sketch -->
    <title>Group 2</title>
    <desc>Created with Sketch.</desc>
    <defs></defs>
    <g id="Page-1" stroke="none" stroke-width="1" fill="none" fill-rule="evenodd">
        <g id="Desktop-HD" transform="translate(-1096.000000, -127.000000)" fill="#FFFFFF">
            <g id="Group-2" transform="translate(1096.000000, 127.000000)">
                <path d="M8.80279573,17.2473615 C5.22134129,13.6659071 5.22134129,7.85941192 8.80277848,4.2781494 C12.3840582,0.696694958 18.1905534,0.696694958 21.7719992,4.27814078 C25.353445,7.85941192 25.353445,13.6659071 21.7719992,17.2473529 C18.1905534,20.8287987 12.3840582,20.8287987 8.80279573,17.2473615 Z M22.4790974,3.57102537 C18.507133,-0.400938989 12.0674596,-0.400938989 8.0956717,3.57104262 C4.12370734,7.54281325 4.12370734,13.9824867 8.09568033,17.9544597 C12.0674596,21.9264327 18.507133,21.9264327 22.479106,17.9544597 C26.451079,13.9824867 26.451079,7.54281325 22.4790974,3.57102537 Z" id="Stroke-1"></path>
                <polygon id="Stroke-3" points="0.52267706 24.8203195 1.22978385 25.5274263 8.80275027 17.9544597 8.09564348 17.2473529"></polygon>
            </g>
        </g>
    </g>
</svg>