<?xml version="1.0" encoding="UTF-8" standalone="no"?>
<svg width="28px" height="25px" viewBox="0 0 28 25" version="1.1" xmlns="http://www.w3.org/2000/svg" xmlns:xlink="http://www.w3.org/1999/xlink">
    <!-- Generator: Sketch 39.1 (31720) - http://www.bohemiancoding.com/sketch -->
    <title>Group 4</title>
    <desc>Created with Sketch.</desc>
    <defs></defs>
    <g id="Page-1" stroke="none" stroke-width="1" fill="none" fill-rule="evenodd">
        <g id="Desktop-HD" transform="translate(-1323.000000, -129.000000)" fill="#FFFFFF">
            <g id="Group-4" transform="translate(1323.000000, 129.000000)">
                <path d="M1,6.5 L0.5,6.5 L0.5,7 L0.5,24.0140224 L0.5,24.5140224 L1,24.5140224 L18.2349837,24.5140224 L26.8523769,24.5140224 L27.3523769,24.5140224 L27.3523769,24.0140224 L27.3523769,7 L27.3523769,6.5 L26.8523769,6.5 L18.2349837,6.5 L1,6.5 Z M26.8523769,7.5 L26.3523769,7 L26.3523769,24.0140224 L26.8523769,23.5140224 L18.2349837,23.5140224 L1,23.5140224 L1.5,24.0140224 L1.5,7 L1,7.5 L18.2349837,7.5 L26.8523769,7.5 Z" id="Stroke-1"></path>
                <path d="M13.6212143,1.5 C16.4508394,1.5 18.7422314,3.76207001 18.7422314,6.54914748 L19.7422314,6.54914748 C19.7422314,3.20688181 17.0002617,0.5 13.6212143,0.5 C10.2420028,0.5 7.5,3.20684894 7.5,6.54914748 L8.5,6.54914748 C8.5,3.76204265 10.7914198,1.5 13.6212143,1.5 Z" id="Stroke-3"></path>
            </g>
        </g>
    </g>
</svg>