<?xml version="1.0" encoding="UTF-8" standalone="no"?>
<svg width="108px" height="87px" viewBox="0 0 108 87" version="1.1" xmlns="http://www.w3.org/2000/svg" xmlns:xlink="http://www.w3.org/1999/xlink">
    <!-- Generator: Sketch 39.1 (31720) - http://www.bohemiancoding.com/sketch -->
    <title>logo</title>
    <desc>Created with Sketch.</desc>
    <defs></defs>
    <g id="Page-1" stroke="none" stroke-width="1" fill="none" fill-rule="evenodd">
        <g id="Desktop-HD" transform="translate(-666.000000, -96.000000)">
            <g id="logo" transform="translate(666.000000, 97.000000)">
                <g id="Group" transform="translate(0.000000, 72.000000)" fill="#FEFEFE">
                    <polygon id="Fill-1" points="6.19637188 6.94956025 -3.28774063e-05 0.178671762 -3.28774063e-05 13.0826828 2.05973663 13.0826828 2.05973663 5.17740459 6.19637188 9.82098417 10.3330071 5.17740459 10.3330071 13.0826828 12.3927766 13.0826828 12.3927766 0.178671762"></polygon>
                    <polygon id="Fill-2" points="16.2805299 0.497718864 16.2805299 2.51835051 19.5291465 2.51835051 19.5291465 13.0826828 21.588916 13.0826828 21.588916 2.51835051 24.855615 2.51835051 24.855615 0.497718864"></polygon>
                    <path d="M26.8082371,11.6824533 C26.8082371,10.8493859 27.5006353,10.1577889 28.3528176,10.1577889 C29.205,10.1577889 29.8799732,10.8493859 29.8799732,11.6824533 C29.8799732,12.5332456 29.205,13.2241861 28.3528176,13.2241861 C27.5006353,13.2241861 26.8082371,12.5332456 26.8082371,11.6824533" id="Fill-3"></path>
                    <polygon id="Fill-5" points="34.4069619 0.178770234 40.6033666 6.94965873 46.7994426 0.178770234 46.7994426 13.0827813 44.7400019 13.0827813 44.7400019 5.17750307 40.6033666 9.82108264 36.4667314 5.17750307 36.4667314 13.0827813 34.4069619 13.0827813"></polygon>
                    <path d="M56.6701934,4.52148708 L54.8770597,8.40322682 L58.4633272,8.40322682 L56.6701934,4.52148708 Z M52.7110961,13.0825843 L50.509625,13.0825843 L56.6701934,0.19629813 L62.8307618,13.0825843 L60.6115369,13.0825843 L59.3155095,10.2820598 L54.0067947,10.2820598 L52.7110961,13.0825843 Z" id="Fill-7"></path>
                    <polygon id="Fill-9" points="68.6007466 4.89364305 68.6007466 13.0825187 66.5409771 13.0825187 66.5409771 0.196232482 75.1518986 8.61585924 75.1518986 0.497554745 77.2113393 0.497554745 77.2113393 13.3129416"></polygon>
                    <path d="M92.2131025,6.79029929 C92.2131025,4.27304392 90.3489536,2.30591503 87.8634217,2.30591503 C85.377561,2.30591503 83.5134121,4.27304392 83.5134121,6.79029929 C83.5134121,9.30722643 85.377561,11.2746836 87.8634217,11.2746836 C90.3489536,11.2746836 92.2131025,9.30722643 92.2131025,6.79029929 M81.4184637,6.79029929 C81.4184637,3.1567073 84.2945792,0.355854505 87.8634217,0.355854505 C91.4496892,0.355854505 94.3080509,3.1567073 94.3080509,6.79029929 C94.3080509,10.423563 91.4496892,13.2244158 87.8634217,13.2244158 C84.2945792,13.2244158 81.4184637,10.423563 81.4184637,6.79029929" id="Fill-11"></path>
                    <path d="M102.368177,5.93927726 C103.73522,5.93927726 104.516387,5.24833677 104.516387,4.1845182 C104.516387,3.10330302 103.73522,2.39430946 102.368177,2.39430946 L100.575043,2.39430946 L100.575043,5.93927726 L102.368177,5.93927726 Z M100.575043,13.0827156 L98.5152739,13.0827156 L98.5152739,0.497751688 L102.598977,0.497751688 C104.942478,0.497751688 106.611335,2.004363 106.611335,4.11361884 C106.611335,5.74430403 105.617122,7.03854551 104.018952,7.53451276 L108.031968,13.0827156 L105.563861,13.0827156 L101.764548,7.72948599 L100.575043,7.72948599 L100.575043,13.0827156 Z" id="Fill-13"></path>
                </g>
                <g id="Group-3" transform="translate(23.000000, 0.000000)" stroke-width="2" stroke="#FEAB83">
                    <polyline id="Stroke-16" points="16.8389669 45.6609577 16.8389669 16.6608235 30.376239 30.1763414 43.9138398 16.6608235 43.9138398 45.6609577"></polyline>
                    <polyline id="Stroke-18" points="16.8389669 45.6609577 16.8389669 30.228203 30.376239 43.7433927 43.9138398 30.228203 43.9138398 45.6609577"></polyline>
                    <path d="M16.8389669,30 L43.9138398,30" id="Stroke-20"></path>
                    <path d="M30,30.176243 L30,43.7432943" id="Stroke-22"></path>
                    <polygon id="Stroke-24" points="30.3763376 59.8086288 0.69560152 30.1763086 30.3763376 0.543988438 60.0570737 30.1763086"></polygon>
                </g>
            </g>
        </g>
    </g>
</svg>
